<?xml version="1.0" encoding="utf-8"?>
<!-- Generator: Adobe Illustrator 16.0.0, SVG Export Plug-In . SVG Version: 6.00 Build 0)  -->
<!DOCTYPE svg PUBLIC "-//W3C//DTD SVG 1.1//EN" "http://www.w3.org/Graphics/SVG/1.1/DTD/svg11.dtd">
<svg version="1.1" id="Warstwa_1" xmlns="http://www.w3.org/2000/svg" xmlns:xlink="http://www.w3.org/1999/xlink" x="0px" y="0px"
	 width="150px" height="150px" viewBox="0 0 150 150" enable-background="new 0 0 150 150" xml:space="preserve">
<g>
	<path fill="#FFFFFF" d="M149.39,141.008l-15.798-19.304c-0.494-0.606-1.229-0.988-2.033-1.061
		c-10.72-1.002-16.441-3.139-21.043-4.855c-4.073-1.521-8.277-3.093-13.705-3.093c-8.269,0-14.591,4.143-18.882,8.836v-0.105
		c2.393-5.171,8.757-13.33,18.647-13.33c4.256,0,7.565,1.238,11.405,2.671c3.203,1.199,7.194,2.687,13.021,3.836
		c1.582,0.312,3.137-0.638,3.467-2.126c0.335-1.486-0.68-2.947-2.26-3.256c-5.341-1.057-8.907-2.39-12.063-3.565
		c-4.027-1.506-8.195-3.063-13.57-3.063c-10.299,0-17.546,6.48-21.577,12.382c-4.032-5.901-11.278-12.382-21.576-12.382
		c-5.374,0-9.542,1.557-13.571,3.063c-4.546,1.695-10.205,3.813-20.805,4.799c-1.612,0.149-2.786,1.496-2.626,3.008
		c0.16,1.514,1.594,2.618,3.205,2.468c11.419-1.064,17.762-3.435,22.393-5.163c3.836-1.433,7.152-2.671,11.405-2.671
		c9.891,0,16.259,8.159,18.646,13.332v0.104c-4.288-4.693-10.609-8.836-18.88-8.836c-5.427,0-9.636,1.572-13.707,3.093
		c-4.6,1.717-10.321,3.854-21.041,4.855c-0.805,0.072-1.541,0.454-2.034,1.061l-15.8,19.304c-0.682,0.831-0.799,1.951-0.305,2.892
		c0.494,0.942,1.513,1.535,2.628,1.535h144.138c1.117,0,2.135-0.593,2.629-1.535C150.193,142.959,150.071,141.839,149.39,141.008z
		 M96.811,118.196c4.306,0,7.657,1.252,11.538,2.706c4.509,1.68,10.613,3.961,21.363,5.09l11.38,13.903
		c-19.579-0.396-28.872-3.866-35.143-6.213c-3.641-1.358-6.047-2.255-9.139-2.255c-5.416,0-9.13,3.815-10.665,7.093
		c-0.014,0.026-0.029,0.052-0.041,0.08l-0.668,1.331h-7.508v-8.233C80.346,126.465,86.792,118.196,96.811,118.196z M20.289,125.992
		c10.749-1.129,16.854-3.41,21.364-5.09c3.879-1.454,7.231-2.706,11.538-2.706c10.017,0,16.464,8.269,18.88,13.502v8.233h-7.506
		l-0.668-1.331c-0.014-0.028-0.027-0.054-0.041-0.08c-1.54-3.277-5.249-7.093-10.665-7.093c-3.092,0-5.497,0.896-9.135,2.255
		c-6.273,2.347-15.569,5.816-35.146,6.213L20.289,125.992z M46.219,138.799c3.225-1.207,5.001-1.869,6.971-1.869
		c2.528,0,4.115,1.869,4.848,3.002H43.12C44.233,139.54,45.259,139.154,46.219,138.799z M91.962,139.932
		c0.732-1.133,2.318-3.002,4.849-3.002c1.972,0,3.747,0.662,6.972,1.87c0.96,0.354,1.985,0.74,3.097,1.132H91.962z"/>
	<path fill="#FFFFFF" d="M130.273,115.919l0.105,0.011c0.096,0.009,0.194,0.014,0.288,0.014c1.49,0,2.764-1.063,2.913-2.481
		c0.157-1.515-1.019-2.86-2.63-3.008l-0.101-0.009c-1.613-0.153-3.046,0.953-3.207,2.467
		C127.485,114.424,128.663,115.771,130.273,115.919z"/>
	<path fill="#FFFFFF" d="M65.112,72.259c-0.76,0.061-1.472,0.4-1.975,0.949c-0.557,0.61-0.802,1.419-0.672,2.21
		c1.214,7.431,5.423,12.503,11.568,14.243c-0.139,1.039-0.27,2.084-0.388,3.129l-1.559,13.969c-0.167,1.511,0.999,2.867,2.61,3.023
		c0.103,0.012,0.205,0.018,0.308,0.018c1.479,0,2.753-1.051,2.909-2.47l1.559-13.968c0.117-1.017,0.243-2.024,0.379-3.037
		c13.625-0.157,21.945-8.32,26.114-25.573c0.46-1.922,1.024-4.155,1.667-6.646c0.206-0.789,0.029-1.619-0.48-2.279
		c-0.19-0.238-0.424-0.45-0.676-0.621l1.15-0.619c0.695-0.371,1.195-0.99,1.39-1.721c5.117-19.128,12.614-44.56,12.687-44.814
		c0.252-0.858,0.051-1.771-0.544-2.462c-0.593-0.692-1.507-1.072-2.445-1.019c-0.997,0.053-24.529,1.649-43.876,31.211
		c-0.24,0.363-0.474,0.727-0.706,1.095c-0.356,0.554-0.49,1.208-0.378,1.854l1.466,8.481h-4.974c-1.176,0-2.234,0.659-2.696,1.669
		c-3.137,6.907-4.938,13.385-5.358,19.26c-0.055,0.785,0.246,1.553,0.83,2.11L65.112,72.259z M103.636,50.391l-7.824,4.199
		c-1.118,0.603-1.69,1.826-1.401,3.006c0.291,1.181,1.37,2.046,2.657,2.129l4.063,0.257c-0.327,1.274-0.621,2.466-0.881,3.553
		C96.018,81.06,88.206,84.515,80.708,84.809c4.301-24.34,15.173-46.948,31.817-66.101C109.97,27.561,106.481,39.818,103.636,50.391z
		 M72.202,52.717h6.459c0.859,0,1.678-0.354,2.231-0.97c0.558-0.616,0.796-1.428,0.662-2.224l-1.846-10.68
		c0.041-0.057,0.075-0.118,0.12-0.181c9.235-14.114,19.418-21.139,26.331-24.541c1.641-0.81,3.178-1.454,4.577-1.977
		c-10.08,10.994-18.355,23.283-24.6,36.565c-5.333,11.34-9.098,23.213-11.244,35.403c-3.19-1.229-4.9-3.854-5.819-6.362h2.996
		c1.18,0,2.244-0.666,2.701-1.682c0.458-1.021,0.218-2.199-0.606-2.993l-6.021-5.777C68.618,62.83,69.979,57.936,72.202,52.717z"/>
</g>
</svg>
