<?xml version="1.0" encoding="utf-8"?>
<!-- Generator: Adobe Illustrator 16.0.0, SVG Export Plug-In . SVG Version: 6.00 Build 0)  -->
<!DOCTYPE svg PUBLIC "-//W3C//DTD SVG 1.1//EN" "http://www.w3.org/Graphics/SVG/1.1/DTD/svg11.dtd">
<svg version="1.1" id="Warstwa_1" xmlns="http://www.w3.org/2000/svg" xmlns:xlink="http://www.w3.org/1999/xlink" x="0px" y="0px"
	 width="150px" height="150px" viewBox="0 0 150 150" enable-background="new 0 0 150 150" xml:space="preserve">
<g>
	<g>
		<path fill="#FFFFFF" d="M119.815,13.28c0-1.633,1.324-2.96,2.96-2.96c1.633,0,2.96,1.327,2.96,2.96c0,1.635-1.327,2.96-2.96,2.96
			C121.14,16.24,119.815,14.915,119.815,13.28z M76.516,31.249c-1.553-0.503-3.218,0.35-3.721,1.901
			c-1.85,5.72-2.128,11.851-0.803,17.722c0.621,2.748,2.691,4.91,5.388,5.7c10.519,3.085,20.023,1.732,22.869,1.25
			c1.61-0.271,2.695-1.796,2.424-3.406s-1.796-2.692-3.406-2.423c-6.72,1.134-13.729,0.752-20.273-1.106
			c-0.617-0.177-1.092-0.681-1.235-1.315c-1.092-4.84-0.863-9.887,0.661-14.6C78.922,33.417,78.069,31.75,76.516,31.249
			L76.516,31.249z M55.057,58.868c1.505,1.475,3.384,0.804,4.18,0c3.181-3.204,5.208-7.237,5.829-11.7
			c0.6-4.313-0.203-8.791-2.259-12.605c-0.775-1.438-2.567-1.973-4.005-1.198c-1.437,0.775-1.973,2.567-1.199,4.003
			c3.048,5.652,2.001,12.775-2.546,17.322C53.903,55.843,53.892,57.725,55.057,58.868z M128.888,90.438
			c1.132,1.075,2.007,2.457,2.479,4.057c1.177,3.963-0.77,9.283-6.246,10.89l-20.513,5.529
			c-5.987,1.613-52.866,11.852-62.685,14.526c-6.412,1.746-12.133,5.602-16.094,10.937l-6.315,8.508
			c-0.561,0.754-1.381,1.216-2.498,1.189c-1.115-0.025-2.092-0.739-2.541-1.673L0.291,114.846c-0.56-1.164-0.296-2.557,0.649-3.438
			l8.5-7.927c1.151-1.071,1.936-2.453,2.269-3.988l1.203-5.541c1.788-8.23,6.586-15.403,13.512-20.194l14.257-9.865l-2.636-7.577
			c-1.14-3.379,0.473-7.009,3.933-8.354c4.695-1.832,5.44-6.079,5.277-8.441c-0.497-7.191,0.962-12.083,4.02-17.392
			c3.169-5.505,9.56-12.464,20.735-15.51c6.938-1.891,14.122-2.692,21.353-2.692c9.476,0,17.049,1.696,17.642,1.832
			c3.805,0.854,2.51,6.62-1.292,5.767c-0.529-0.118-7.541-1.689-16.35-1.689c-6.73,0-13.388,0.86-19.875,2.506
			c-8.687,2.203-14.798,8.628-17.153,12.843c-2.355,4.213-3.579,7.962-3.197,13.819c0.428,6.554-2.904,12.063-9.009,14.459
			c-0.402,0.153-0.609,0.596-0.468,1.003L47,64.07c0.354,0.936,0.239,2.355-1.041,3.353c-3.725,2.905-6.764,6.581-8.558,10.925
			l5.131,1.227l1.81-3.829c0.695-1.471,2.442-2.188,3.926-1.521c1.511,0.682,2.165,2.466,1.459,3.958l-1.321,2.792l4.851,1.161
			c1.378-2.757,2.832-5.472,4.359-8.128l4.901-8.531c1.938-3.399,7.143-6.049,12.106-3.269c4.263,2.389,5.701,7.867,3.27,12.102
			l-7.47,13c-0.851,1.482-1.64,3.018-2.355,4.578c2.267-2.432,7.783-8.386,7.84-8.448c1.063-1.146,2.088-2.35,3.051-3.577
			l9.404-12.016c3.007-3.842,8.356-4.579,12.277-1.823c3.188,2.242,5.504,8.02,1.774,12.639L94.144,89.23
			c-1.901,2.432-3.924,4.812-6.013,7.093c2.81-0.315,5.614-0.848,8.34-1.579l19.906-5.367c16.563-4.478,27.699-19.146,27.712-36.5
			c0-2.01-0.155-4.054-0.461-6.073c-1.354-8.928-5.582-17.08-12.233-23.569c-2.815-2.746,1.281-6.946,4.127-4.231
			c8.305,7.919,12.696,18.345,13.95,26.916c0.337,2.313,0.528,4.654,0.528,6.957C150,66.862,143.528,81.501,128.888,90.438
			L128.888,90.438z M125.674,96.079c-0.449-1.61-2.042-2.537-3.631-2.11l-24.033,6.48c-3.065,0.825-6.22,1.421-9.376,1.768
			c0,0-5.424,0.578-7.477,0.821c-2.896,0.339-4.631-2.656-2.695-4.967l4.77-5.144c2.179-2.348,4.285-4.818,6.26-7.343l8.271-10.566
			c0.498-0.638,1.405-2.694-0.595-4.215c-1.249-0.95-3.131-0.618-4.148,0.686l-9.403,12.014c-1.065,1.356-2.197,2.688-3.372,3.952
			c-0.057,0.064-6.139,6.631-8.168,8.8c-1.682,1.802-4.389,2.33-6.484,1.401c-3.204-1.423-4.508-4.722-2.881-8.27
			c2.352-5.123,10.059-18.023,10.059-18.023c0.797-1.388,0.308-3.255-1.093-4.035c-1.385-0.771-3.312-0.239-4.034,1.091l-4.9,8.532
			c-3.05,5.306-5.95,11.168-8.205,16.492c-0.387,0.917-1.337,1.799-2.72,1.799H41.476c-4.42,0-8.487,2.218-10.881,5.935l-1.96,3.048
			c-2.133,3.312-7.102,0.112-4.97-3.199l1.961-3.048c3.486-5.413,9.411-8.647,15.851-8.647h8.401c0.255-0.58,0.517-1.16,0.78-1.741
			l-14.634-3.493c-3.499-0.847-4.869-4.128-4.462-6.72c-7.406,4.678-11.42,11.137-12.874,17.827l-1.202,5.542
			c-0.59,2.719-1.979,5.159-4.014,7.057l-6.911,6.443l11.127,23.181l3.396-4.575c4.752-6.402,11.617-11.04,19.312-13.121
			c9.878-2.677,56.979-12.99,62.673-14.525l20.513-5.528C124.821,99.393,126.182,97.893,125.674,96.079L125.674,96.079z"/>
	</g>
</g>
</svg>
