<?xml version="1.0" encoding="utf-8"?>
<!-- Generator: Adobe Illustrator 16.0.0, SVG Export Plug-In . SVG Version: 6.00 Build 0)  -->
<!DOCTYPE svg PUBLIC "-//W3C//DTD SVG 1.1//EN" "http://www.w3.org/Graphics/SVG/1.1/DTD/svg11.dtd">
<svg version="1.1" id="Warstwa_1" xmlns="http://www.w3.org/2000/svg" xmlns:xlink="http://www.w3.org/1999/xlink" x="0px" y="0px"
	 width="150px" height="150px" viewBox="0 0 150 150" enable-background="new 0 0 150 150" xml:space="preserve">
<g>
	<g>
		<g>
			<path fill="#FFFFFF" d="M146.534,65.063l-8.108-0.761c-0.952-3.275-2.245-6.396-3.959-9.365l5.14-6.206
				c1.257-1.523,1.142-3.692-0.229-5.101l-10.127-10.242c-1.369-1.408-3.616-1.522-5.141-0.266l-6.205,5.14
				c-2.932-1.676-6.092-3.009-9.327-3.96l-0.761-8.072c-0.19-1.941-1.827-3.426-3.808-3.426H91.37V11.384
				c0-2.094-1.713-3.807-3.808-3.807c-2.094,0-3.807,1.713-3.807,3.807v19.036H69.365c-6.129,0-11.954,2.893-15.685,7.766
				L37.996,58.858l-26.384,7.196C4.76,67.918,0.038,74.125,0,81.245v10.088c0.038,8.68,7.12,15.686,15.799,15.686h2.057
				c2.856,10.621,13.781,16.865,24.403,14.01c6.814-1.865,12.183-7.197,14.011-14.01h27.486v31.6c0,2.092,1.713,3.805,3.807,3.805
				c2.095,0,3.808-1.713,3.808-3.805v-9.139h12.64c1.98,0,3.617-1.484,3.808-3.465l0.761-8.107c3.274-0.953,6.396-2.248,9.365-3.922
				l6.207,5.139c1.522,1.258,3.731,1.143,5.101-0.229l10.241-10.24c1.371-1.371,1.484-3.617,0.228-5.141l-5.14-6.205
				c1.677-2.969,3.008-6.092,3.961-9.328l7.993-0.76c1.943-0.191,3.466-1.828,3.466-3.809V68.833
				C150,66.891,148.478,65.254,146.534,65.063z M37.043,114.138c-6.777,0-12.297-5.521-12.297-12.297
				c0-6.777,5.52-12.297,12.297-12.297c6.776,0,12.298,5.52,12.298,12.297C49.341,108.616,43.857,114.138,37.043,114.138z
				 M83.756,99.366H56.803C55.47,88.438,45.534,80.71,34.644,82.005c-9.061,1.105-16.217,8.262-17.359,17.361h-1.524
				c-4.492,0.037-8.147-3.58-8.185-8.072V81.245c0.038-3.656,2.476-6.854,6.014-7.844l27.641-7.538
				c0.799-0.229,1.523-0.685,2.019-1.37L59.771,42.83c2.284-3.007,5.863-4.758,9.632-4.758h14.353V99.366z M91.37,59.962
				c8.908-2.97,18.541,1.865,21.511,10.812c2.97,8.946-1.866,18.541-10.813,21.512c-3.464,1.141-7.233,1.141-10.698,0V59.962z
				 M142.386,79.911L142.386,79.911l-7.234,0.686c-1.637,0.152-3.007,1.371-3.349,2.969c-0.953,4.264-2.667,8.301-5.064,11.955
				c-0.913,1.408-0.8,3.197,0.267,4.492l4.646,5.635l-5.331,5.33l-5.635-4.607c-1.294-1.064-3.121-1.18-4.53-0.229
				c-3.616,2.398-7.652,4.111-11.916,5.025c-1.638,0.344-2.816,1.713-2.97,3.352l-0.686,7.309H91.37v-21.662
				c13.287,2.969,26.46-5.404,29.391-18.693c2.97-13.287-5.405-26.459-18.692-29.429c-3.54-0.799-7.195-0.799-10.698,0V30.458h9.175
				l0.724,7.271c0.152,1.638,1.37,3.009,2.97,3.351c4.264,0.952,8.3,2.665,11.954,5.024c1.409,0.914,3.198,0.8,4.492-0.267
				l5.597-4.644l5.254,5.293l-4.683,5.671c-1.065,1.294-1.18,3.123-0.229,4.531c2.398,3.617,4.111,7.653,5.026,11.917
				c0.38,1.637,1.713,2.817,3.387,2.97l7.349,0.724V79.911z"/>
		</g>
	</g>
</g>
</svg>
