<?xml version="1.0" encoding="utf-8"?>
<!-- Generator: Adobe Illustrator 16.0.0, SVG Export Plug-In . SVG Version: 6.00 Build 0)  -->
<!DOCTYPE svg PUBLIC "-//W3C//DTD SVG 1.1//EN" "http://www.w3.org/Graphics/SVG/1.1/DTD/svg11.dtd">
<svg version="1.1" id="Warstwa_1" xmlns="http://www.w3.org/2000/svg" xmlns:xlink="http://www.w3.org/1999/xlink" x="0px" y="0px"
	 width="150px" height="150px" viewBox="0 0 150 150" enable-background="new 0 0 150 150" xml:space="preserve">
<g>
	<g>
		<g>
			<path fill="#FFFFFF" d="M150,79.258c0-8.694-4.559-16.718-11.836-21.225c1.604-3.347,2.447-7.021,2.447-10.775
				c0-10.8-13.339-19.554-22.072-24.126C117.607,10.221,106.809,0,93.666,0c-7.428,0-14.227,3.002-18.875,8.187
				C70.103,3.002,63.448,0,56.329,0c-8.643,0-16.822,4.637-21.313,12.017c-2.07,3.409-3.306,7.304-3.566,11.283
				c-0.003,0.022-0.006,0.046-0.008,0.069c-0.526,0.268-1.164,0.603-1.944,1.024c-1.96,1.057-4.92,2.772-7.894,4.923
				c-8.106,5.87-12.218,11.906-12.218,17.941c0,3.754,0.841,7.428,2.449,10.775C4.556,62.54,0,70.564,0,79.258
				c0,8.398,4.169,16.109,11.043,20.715c-1.088,2.844-1.657,5.887-1.657,8.934c0,9.014,4.761,17.182,12.516,21.631
				C25.162,141.895,38.131,150,53.397,150c7.896,0,15.626-2.318,21.587-6.406c5.92,4.143,13.501,6.406,21.618,6.406
				c15.266,0,28.233-8.105,31.491-19.463c7.755-4.449,12.518-12.617,12.518-21.631c0-3.047-0.568-6.09-1.655-8.934
				C145.832,95.367,150,87.656,150,79.258z M53.397,144.141c-12.907,0-24.126-6.959-26.102-16.182
				c-0.187-0.867-0.755-1.602-1.545-2.002c-4.735-2.389-8.156-6.525-9.655-11.404c2.447,1.219,5.085,1.844,7.837,1.844h0.009
				c3.985,0,8.078-1.461,11.153-3.994c1.21-0.992,1.39-2.924,0.404-4.123c-0.987-1.205-2.921-1.389-4.122-0.408
				c-2.123,1.742-4.698,2.664-7.441,2.664c-3.286,0-6.354-1.352-8.572-3.727c0.254-2.33,0.928-4.564,2.019-6.672
				c0.742-1.434,0.187-3.199-1.246-3.943c-6.34-3.309-10.278-9.795-10.278-16.936c0-7.468,4.394-14.291,11.199-17.383
				c0.775-0.353,1.358-1.027,1.599-1.844c0.239-0.819,0.111-1.701-0.352-2.415c-1.999-3.091-3.057-6.671-3.057-10.358
				c0-6.946,9.966-13.877,16.621-17.509c1.204,6.092,4.66,11.618,9.75,15.345c1.238,0.904,3.166,0.631,4.095-0.634
				c0.955-1.308,0.672-3.14-0.635-4.096c-7.39-5.41-9.912-15.771-5.81-23.954c3.209-6.393,9.904-10.551,17.06-10.551
				c6.217,0,11.974,2.994,15.555,8.05l0.003,0.295c-0.013,1.932-0.018,6.219-0.012,15.904H55.579c-1.184,0-2.254,0.714-2.706,1.808
				c-0.456,1.095-0.204,2.355,0.633,3.192c4.579,4.582,4.579,12.036,0.002,16.616c-4.445,4.445-12.176,4.432-16.604,0
				c-1.145-1.143-2.999-1.144-4.145,0c-1.145,1.145-1.145,3,0,4.143c0.45,0.453,0.926,0.876,1.418,1.272l-7.419,7.618
				c-3.987,4.005-3.981,10.507,0.017,14.507c3.917,3.922,10.617,3.904,14.518,0c1.142-1.146,1.142-2.998-0.003-4.143
				c-1.146-1.144-2.998-1.143-4.143,0.001c-1.614,1.613-4.562,1.667-6.229,0c-1.719-1.719-1.719-4.518,0-6.236
				c0.007-0.01,0.016-0.02,0.024-0.028c0,0,8.551-8.778,8.551-8.78c0.101-0.102,3.064,0.755,3.437,0.802
				c5.39,0.698,10.881-1.172,14.719-5.012c5.371-5.373,6.537-13.381,3.504-19.899h10.725c0.01,7.493,0.021,17.405,0.04,30.525
				h-7.172v-0.739c0-1.619-1.314-2.93-2.931-2.93c-1.618,0-2.931,1.311-2.931,2.93v7.338c0,1.618,1.313,2.931,2.931,2.931
				c1.617,0,2.931-1.313,2.931-2.931v-0.739h7.18c0.003,1.386,0.021,14.43,0.029,19.385h-8.202c-0.495-1.365-1.286-2.648-2.38-3.74
				c-1.94-1.943-4.518-3.012-7.259-3.012c-2.743,0-5.321,1.068-7.258,3.012c-1.146,1.145-1.146,2.998,0,4.143
				c1.143,1.143,3,1.143,4.144-0.002c3.889-3.893,10.264,2.197,6.228,6.238c-1.142,1.141-1.142,2.998,0,4.141
				c1.103,1.104,3.012,1.135,4.146,0c1.4-1.402,2.312-3.113,2.729-4.918h7.861c0.012,6.746,0.025,13.137,0.035,18.811H49.014
				c-0.777,0-1.524,0.307-2.072,0.857c-4.003,4.002-4.003,10.516,0,14.521c3.888,3.889,10.65,3.867,14.519,0
				c1.143-1.145,1.143-3.002-0.003-4.145s-2.998-1.143-4.141,0c-1.648,1.65-4.593,1.641-6.232,0
				c-1.453-1.457-1.676-3.684-0.667-5.377h21.594c0.011,5.004,0.042,15.307,0.045,16.238
				C67.021,142.1,60.304,144.141,53.397,144.141z M133.863,96.193c-1.434,0.744-1.99,2.51-1.248,3.945
				c1.416,2.73,2.137,5.682,2.137,8.768c0,7.248-4.028,13.781-10.503,17.051c-0.789,0.4-1.359,1.137-1.543,2.002
				c-1.977,9.223-13.197,16.182-26.104,16.182c-7.001,0-13.722-2.041-18.676-5.631l-0.023-16.242h10.588
				c1.066,4.533,5.14,7.918,9.99,7.918c5.661,0,10.265-4.609,10.265-10.27c0-5.662-4.604-10.268-10.265-10.268
				c-4.43,0-8.211,2.818-9.646,6.762h-10.94L77.868,97.6h27.208c1.264,4.238,5.195,7.338,9.837,7.338
				c5.661,0,10.267-4.605,10.267-10.268c0-5.66-4.605-10.27-10.267-10.27c-4.642,0-8.573,3.1-9.837,7.338H77.859l-0.03-19.385h6.415
				c1.266,4.239,5.195,7.338,9.838,7.338c5.66,0,10.264-4.605,10.264-10.269c0-5.661-4.604-10.268-10.264-10.268
				c-4.643,0-8.572,3.1-9.838,7.339H77.82l-0.044-30.526h8.557c1.305,4.174,5.206,7.214,9.802,7.214
				c5.66,0,10.266-4.608,10.266-10.271c0-5.663-4.605-10.268-10.266-10.268c-4.689,0-8.65,3.162-9.873,7.465h-8.491l-0.026-16.224
				c3.478-5.041,9.369-8.025,15.922-8.025c10.521,0,19.08,8.563,19.08,19.088c0,1.808,1.42,2.529,2.031,2.836
				c12.507,6.336,19.973,13.615,19.975,19.474c0,7.296-4.782,15.883-12.778,16.141c-0.783,0.023-1.509,0.351-2.044,0.923
				c-0.537,0.568-0.819,1.315-0.792,2.098c0.023,0.763,0.341,1.479,0.889,2.012c0.548,0.535,1.272,0.827,2.037,0.827h0.007
				c0.03,0,0.06,0,0.086-0.003c4.895-0.552,9.654-2.401,12.9-6.25c5.584,3.445,9.083,9.591,9.083,16.253
				C144.14,86.398,140.202,92.885,133.863,96.193z M94.076,119.916c0-2.432,1.978-4.408,4.405-4.408
				c2.431,0,4.406,1.977,4.406,4.408s-1.976,4.41-4.406,4.41C96.054,124.326,94.076,122.348,94.076,119.916z M110.508,94.67
				c0-2.43,1.976-4.41,4.405-4.41c2.431,0,4.406,1.98,4.406,4.41c0,2.432-1.976,4.408-4.406,4.408
				C112.483,99.078,110.508,97.102,110.508,94.67z M89.676,69.423c0-2.431,1.978-4.409,4.406-4.409c2.43,0,4.404,1.978,4.404,4.409
				s-1.975,4.409-4.404,4.409C91.653,73.832,89.676,71.854,89.676,69.423z M91.729,32.911c0-2.431,1.979-4.409,4.406-4.409
				c2.43,0,4.406,1.978,4.406,4.409c0,2.433-1.977,4.411-4.406,4.411C93.708,37.322,91.729,35.344,91.729,32.911z"/>
		</g>
	</g>
	<g>
		<g>
			<path fill="#FFFFFF" d="M38.801,97.127c-0.815-0.066-1.624,0.205-2.228,0.756c-0.543,0.5-0.879,1.178-0.939,1.914
				c-0.067,0.783,0.174,1.541,0.679,2.139c0.504,0.598,1.21,0.963,1.99,1.031c0.084,0.006,0.167,0.008,0.251,0.008
				c0.733,0,1.434-0.271,1.974-0.766c0.546-0.5,0.878-1.178,0.945-1.914c0-0.002,0-0.002-0.006-0.002
				C41.604,98.686,40.409,97.264,38.801,97.127z"/>
		</g>
	</g>
	<g>
		<g>
			<path fill="#FFFFFF" d="M113.462,60.114c0,0,0,0-0.003-0.002c-0.549-0.531-1.273-0.821-2.033-0.821
				c-0.807,0-1.555,0.317-2.111,0.894c-0.542,0.561-0.833,1.303-0.818,2.084c0.012,0.783,0.327,1.513,0.89,2.054
				c0,0,0,0.002,0.003,0.002c0.547,0.531,1.271,0.825,2.034,0.825c0.801,0,1.55-0.319,2.106-0.898
				C114.65,63.094,114.619,61.239,113.462,60.114z"/>
		</g>
	</g>
</g>
</svg>
