<?xml version="1.0" encoding="utf-8"?>
<!-- Generator: Adobe Illustrator 16.0.0, SVG Export Plug-In . SVG Version: 6.00 Build 0)  -->
<!DOCTYPE svg PUBLIC "-//W3C//DTD SVG 1.1//EN" "http://www.w3.org/Graphics/SVG/1.1/DTD/svg11.dtd">
<svg version="1.1" id="Warstwa_1" xmlns="http://www.w3.org/2000/svg" xmlns:xlink="http://www.w3.org/1999/xlink" x="0px" y="0px"
	 width="50px" height="50px" viewBox="0 0 50 50" enable-background="new 0 0 50 50" xml:space="preserve">
<path fill="#FFFFFF" d="M48.892,1.147c-1.477-1.481-3.87-1.481-5.344,0L25,19.653L6.453,1.111c-1.474-1.482-3.867-1.482-5.344,0
	c-1.479,1.477-1.479,3.865,0,5.347l18.543,18.544L1.109,43.548c-1.479,1.479-1.479,3.867,0,5.345c1.477,1.477,3.87,1.477,5.344,0
	L25,30.349l18.548,18.544c1.474,1.477,3.867,1.477,5.344,0c1.478-1.478,1.478-3.866,0-5.345L30.348,25.002L48.892,6.458
	C50.333,5.014,50.333,2.588,48.892,1.147z"/>
</svg>
